<?xml version="1.0" ?><!DOCTYPE svg  PUBLIC '-//W3C//DTD SVG 1.1//EN'  'http://www.w3.org/Graphics/SVG/1.1/DTD/svg11.dtd'><svg enable-background="new 0 0 24 24" height="24px" id="Layer_1" version="1.1" viewBox="0 0 24 24" width="24px" xml:space="preserve" xmlns="http://www.w3.org/2000/svg" xmlns:xlink="http://www.w3.org/1999/xlink"><path d="M21,0H1C0.4,0,0,0.4,0,1v22c0,0.6,0.4,1,1,1h20c0.6,0,1-0.4,1-1V1C22,0.4,21.6,0,21,0z M9,1v13.2l-2-1.5l-2,1.5V1H9z M20,22  H2v-2h18V22z M20,19H2V2h2v14l3-2l3,2V2h10V19z"/></svg>