<svg width="50" height="50" xmlns="http://www.w3.org/2000/svg">

 <g>
  <title>background</title>
  <rect fill="none" id="canvas_background" height="402" width="582" y="-1" x="-1"/>
 </g>
 <g>
  <title>Layer 1</title>
  <path id="B_1_" fill="#111111" d="m30.3,11.1l-11.1,11.1l-7.4,-5.5l-2.8,0.9l0,13.9l2.8,1.8l7.4,-5.5l11,11.1l6.6,-2.8l0,-22.2l-6.5,-2.8zm-18.5,17.6l0,-7.4l4.6,3.7l-4.6,3.7zm18.5,1.8l-7.4,-5.5l7.4,-5.5l0,11z"/>
  <path id="svg_1" fill="#111111" d="m25,1c-13.3,0 -24,10.7 -24,24s10.7,24 24,24s24,-10.7 24,-24s-10.7,-24 -24,-24zm0,43c-10.5,0 -19,-8.5 -19,-19s8.5,-19 19,-19s19,8.5 19,19s-8.5,19 -19,19z"/>
 </g>
</svg>